<svg xmlns="http://www.w3.org/2000/svg" viewBox="0 0 96 96">
  <defs>
    <linearGradient id="g" x1="0" y1="0" x2="1" y2="1">
      <stop offset="0" stop-color="#ffb7d5"/>
      <stop offset="1" stop-color="#b69df2"/>
    </linearGradient>
  </defs>
  <rect x="4" y="4" width="88" height="88" rx="22" fill="url(#g)"/>
  <rect x="4" y="4" width="88" height="88" rx="22" fill="none" stroke="#ffffff" stroke-opacity="0.55" stroke-width="2.5"/>
  <!-- mortarboard -->
  <path d="M48 30 L74 42 L48 54 L22 42 Z" fill="#ffffff" stroke="#e0568c" stroke-width="2.5" stroke-linejoin="round"/>
  <path d="M34 47 v10 q14 8 28 0 v-10" fill="none" stroke="#ffffff" stroke-width="3" stroke-linecap="round"/>
  <line x1="70" y1="44" x2="70" y2="58" stroke="#ffffff" stroke-width="2.5" stroke-linecap="round"/>
  <circle cx="70" cy="61" r="4" fill="#ffd76e" stroke="#e0568c" stroke-width="1.5"/>
  <!-- sparkle -->
  <path d="M24 22 l2 5 5 2 -5 2 -2 5 -2 -5 -5 -2 5 -2 Z" fill="#ffffff" opacity="0.9"/>
  <path d="M74 76 l1.5 3.5 3.5 1.5 -3.5 1.5 -1.5 3.5 -1.5 -3.5 -3.5 -1.5 3.5 -1.5 Z" fill="#ffffff" opacity="0.75"/>
</svg>
